<svg width="17" height="21" viewBox="0 0 17 21" fill="none" xmlns="http://www.w3.org/2000/svg">
<path d="M14.8633 7H13.8633V5C13.8633 2.24 11.6233 0 8.86328 0C6.10328 0 3.86328 2.24 3.86328 5V7H2.86328C1.76328 7 0.863281 7.9 0.863281 9V19C0.863281 20.1 1.76328 21 2.86328 21H14.8633C15.9633 21 16.8633 20.1 16.8633 19V9C16.8633 7.9 15.9633 7 14.8633 7ZM8.86328 16C7.76328 16 6.86328 15.1 6.86328 14C6.86328 12.9 7.76328 12 8.86328 12C9.96328 12 10.8633 12.9 10.8633 14C10.8633 15.1 9.96328 16 8.86328 16ZM11.9633 7H5.76328V5C5.76328 3.29 7.15328 1.9 8.86328 1.9C10.5733 1.9 11.9633 3.29 11.9633 5V7Z" fill="black"/>
</svg>
