<svg width="17" height="21" viewBox="0 0 17 21" fill="none" xmlns="http://www.w3.org/2000/svg">
<path d="M8.81445 16C9.91445 16 10.8145 15.1 10.8145 14C10.8145 12.9 9.91445 12 8.81445 12C7.71445 12 6.81445 12.9 6.81445 14C6.81445 15.1 7.71445 16 8.81445 16ZM14.8145 7H13.8145V5C13.8145 2.24 11.5745 0 8.81445 0C6.05445 0 3.81445 2.24 3.81445 5H5.71445C5.71445 3.29 7.10445 1.9 8.81445 1.9C10.5245 1.9 11.9145 3.29 11.9145 5V7H2.81445C1.71445 7 0.814453 7.9 0.814453 9V19C0.814453 20.1 1.71445 21 2.81445 21H14.8145C15.9145 21 16.8145 20.1 16.8145 19V9C16.8145 7.9 15.9145 7 14.8145 7ZM14.8145 19H2.81445V9H14.8145V19Z" fill="black"/>
</svg>
