<svg width="72" height="72" viewBox="0 0 72 72" fill="none" xmlns="http://www.w3.org/2000/svg">
<circle cx="36" cy="36" r="35.5" fill="#C53232"/>
<path d="M22.1064 18.8245H34.4057C37.9975 18.8245 41.117 19.2108 43.7643 19.9836C46.4116 20.7563 48.601 21.8653 50.3325 23.3106C52.0783 24.7416 53.3733 26.4874 54.2176 28.548C55.0762 30.5943 55.5055 32.8981 55.5055 35.4596C55.5055 37.8923 55.0834 40.1461 54.2391 42.221C53.3948 44.2816 52.1069 46.0703 50.3754 47.5872C48.644 49.0897 46.4546 50.2702 43.8072 51.1288C41.1599 51.9731 38.0404 52.3952 34.4486 52.3952L22.1064 52.3738V18.8245ZM36.08 46.4925C38.1119 46.4925 39.8935 46.2349 41.4247 45.7197C42.9558 45.1903 44.2294 44.4462 45.2454 43.4874C46.2757 42.5286 47.0484 41.3695 47.5636 40.0101C48.0787 38.6507 48.3363 37.1338 48.3363 35.4596C48.3363 33.814 48.0787 32.3329 47.5636 31.0164C47.0484 29.6856 46.2757 28.5623 45.2454 27.6465C44.2294 26.7163 42.9558 26.0008 41.4247 25.5C39.8935 24.9991 38.1119 24.7487 36.08 24.7487H28.9107V46.4925H36.08Z" fill="black"/>
<path d="M62.3324 35.6099H9.66759" stroke="black" stroke-width="3"/>
</svg>
